<svg width="637" height="720" viewBox="0 0 637 720" fill="none" xmlns="http://www.w3.org/2000/svg">
<path fill-rule="evenodd" clip-rule="evenodd" d="M457.077 887.952C371.033 863.079 313.503 753.358 241.694 677.378C168.025 599.431 27.9858 573.763 31.6019 437.768C35.7696 281.025 236.593 283.578 256.26 129.562C281.269 -66.2918 54.8946 -278.675 142.166 -428.082C220.303 -561.851 354.1 -301.264 457.077 -214.232C508.414 -170.844 540.586 -96.8607 590.301 -49.3358C645.733 3.65303 714.233 11.1947 762.742 77.9653C849.883 197.912 983.489 306.792 978.476 484.973C973.752 652.925 840.676 745.543 741.813 821.953C654.142 889.712 553.757 915.901 457.077 887.952Z" fill="#00FFF5"/>
<path fill-rule="evenodd" clip-rule="evenodd" d="M697.273 -288.164C741.718 -254.016 733.222 -184.118 762.986 -136.22C790.655 -91.6926 858.416 -73.5035 863.389 -20.8373C868.37 31.9049 823.015 75.8775 786.652 114.41C753.793 149.23 711.261 168.353 667.483 186.761C618.733 207.26 570.149 236.203 518.506 227.164C462.769 217.409 405.857 187.271 379.847 136.42C354.578 87.0171 383.706 28.5563 388.362 -27.2796C392.656 -78.7701 385.345 -130.091 406.026 -177.508C431.311 -235.481 459.573 -302.273 517.977 -324.462C576.886 -346.844 647.623 -326.31 697.273 -288.164Z" stroke="#222831"/>
<path fill-rule="evenodd" clip-rule="evenodd" d="M697.273 -272.701C741.718 -238.554 733.222 -168.656 762.986 -120.757C790.655 -76.2302 858.416 -58.0411 863.389 -5.37492C868.37 47.3673 823.015 91.3399 786.652 129.873C753.793 164.693 711.261 183.815 667.483 202.224C618.733 222.723 570.149 251.665 518.506 242.627C462.769 232.872 405.857 202.733 379.847 151.882C354.578 102.479 383.706 44.0187 388.362 -11.8172C392.656 -63.3077 385.345 -114.629 406.026 -162.046C431.311 -220.019 459.573 -286.81 517.977 -309C576.886 -331.382 647.623 -310.848 697.273 -272.701Z" stroke="#222831"/>
<path fill-rule="evenodd" clip-rule="evenodd" d="M697.273 -257.239C741.718 -223.091 733.222 -153.193 762.986 -105.295C790.655 -60.7673 858.416 -42.5782 863.389 10.088C868.37 62.8302 823.015 106.803 786.652 145.336C753.793 180.156 711.261 199.278 667.483 217.686C618.733 238.186 570.149 267.128 518.506 258.09C462.769 248.334 405.857 218.196 379.847 167.345C354.578 117.942 383.706 59.4816 388.362 3.64565C392.656 -47.8448 385.345 -99.1661 406.026 -146.583C431.311 -204.556 459.573 -271.347 517.977 -293.537C576.886 -315.919 647.623 -295.385 697.273 -257.239Z" stroke="#222831"/>
<path fill-rule="evenodd" clip-rule="evenodd" d="M503.464 756.521C417.42 731.647 359.89 621.926 288.081 545.946C214.412 468 74.3725 442.332 77.9886 306.336C82.1563 149.593 282.98 152.147 302.647 -1.86937C327.656 -197.723 101.281 -410.107 188.553 -559.514C266.69 -693.283 400.487 -432.696 503.464 -345.664C554.801 -302.275 586.973 -228.292 636.688 -180.767C692.119 -127.779 760.62 -120.237 809.129 -53.4664C896.27 66.4805 1029.88 175.36 1024.86 353.542C1020.14 521.494 887.063 614.112 788.2 690.521C700.529 758.28 600.144 784.469 503.464 756.521Z" stroke="#00ADB5"/>
<path fill-rule="evenodd" clip-rule="evenodd" d="M441.614 756.521C355.571 731.647 298.04 621.926 226.231 545.946C152.563 468 12.5229 442.332 16.139 306.336C20.3067 149.593 221.13 152.147 240.797 -1.86937C265.807 -197.723 39.4317 -410.107 126.703 -559.514C204.84 -693.283 338.637 -432.696 441.614 -345.664C492.952 -302.275 525.123 -228.292 574.838 -180.767C630.27 -127.779 698.77 -120.237 747.279 -53.4664C834.42 66.4805 968.026 175.36 963.013 353.542C958.289 521.494 825.214 614.112 726.35 690.521C638.679 758.28 538.294 784.469 441.614 756.521Z" stroke="#00ADB5"/>
<path fill-rule="evenodd" clip-rule="evenodd" d="M488.001 756.521C401.957 731.647 344.427 621.926 272.618 545.946C198.949 468 58.9096 442.332 62.5257 306.336C66.6934 149.593 267.517 152.147 287.184 -1.86937C312.193 -197.723 85.8184 -410.107 173.09 -559.514C251.227 -693.283 385.024 -432.696 488.001 -345.664C539.338 -302.275 571.51 -228.292 621.225 -180.767C676.656 -127.779 745.157 -120.237 793.666 -53.4664C880.807 66.4805 1014.41 175.36 1009.4 353.542C1004.68 521.494 871.6 614.112 772.737 690.521C685.066 758.28 584.681 784.469 488.001 756.521Z" stroke="#00ADB5"/>
<path fill-rule="evenodd" clip-rule="evenodd" d="M426.151 756.521C340.108 731.647 282.577 621.926 210.768 545.946C137.1 468 -2.93998 442.332 0.67607 306.336C4.84379 149.593 205.667 152.147 225.334 -1.86937C250.344 -197.723 23.9688 -410.107 111.24 -559.514C189.377 -693.283 323.175 -432.696 426.151 -345.664C477.489 -302.275 509.66 -228.292 559.376 -180.767C614.807 -127.779 683.307 -120.237 731.816 -53.4664C818.957 66.4805 952.563 175.36 947.55 353.542C942.826 521.494 809.751 614.112 710.887 690.521C623.217 758.28 522.832 784.469 426.151 756.521Z" stroke="#00ADB5"/>
<path fill-rule="evenodd" clip-rule="evenodd" d="M472.538 756.521C386.494 731.647 328.964 621.926 257.155 545.946C183.486 468 43.4467 442.332 47.0628 306.336C51.2305 149.593 252.054 152.147 271.721 -1.86937C296.73 -197.723 70.3555 -410.107 157.627 -559.514C235.764 -693.283 369.561 -432.696 472.538 -345.664C523.875 -302.275 556.047 -228.292 605.762 -180.767C661.193 -127.779 729.694 -120.237 778.203 -53.4664C865.344 66.4805 998.95 175.36 993.937 353.542C989.213 521.494 856.137 614.112 757.274 690.521C669.603 758.28 569.218 784.469 472.538 756.521Z" stroke="#00ADB5"/>
<path fill-rule="evenodd" clip-rule="evenodd" d="M457.077 756.521C371.033 731.647 313.503 621.926 241.694 545.946C168.025 468 27.9858 442.332 31.6019 306.336C35.7696 149.593 236.593 152.147 256.26 -1.86937C281.269 -197.723 54.8946 -410.107 142.166 -559.514C220.303 -693.283 354.1 -432.696 457.077 -345.664C508.414 -302.275 540.586 -228.292 590.301 -180.767C645.733 -127.779 714.233 -120.237 762.742 -53.4664C849.883 66.4805 983.489 175.36 978.476 353.542C973.752 521.494 840.676 614.112 741.813 690.521C654.142 758.28 553.757 784.469 457.077 756.521Z" stroke="#00ADB5"/>
<path fill-rule="evenodd" clip-rule="evenodd" d="M697.271 -303.627C741.716 -269.479 733.22 -199.581 762.984 -151.683C790.653 -107.156 858.414 -88.9664 863.388 -36.3002C868.368 16.442 823.013 60.4146 786.65 98.9475C753.792 133.768 711.259 152.89 667.481 171.298C618.731 191.798 570.147 220.74 518.504 211.701C462.767 201.946 405.855 171.808 379.845 120.957C354.576 71.5542 383.704 13.0934 388.36 -42.7425C392.654 -94.233 385.343 -145.554 406.024 -192.971C431.309 -250.944 459.571 -317.735 517.975 -339.925C576.884 -362.307 647.621 -341.773 697.271 -303.627Z" fill="#222831"/>
</svg>
