<svg width="1600" height="1200" viewBox="0 0 1600 1200" fill="none" xmlns="http://www.w3.org/2000/svg">
<g clip-path="url(#clip0_408_210)">
<rect width="1600" height="1200" fill="white"/>
<g clip-path="url(#clip1_408_210)">
<rect width="1600" height="1200" fill="#222831"/>
<g opacity="0.1">
<path fill-rule="evenodd" clip-rule="evenodd" d="M771.578 1118.01C786.62 1162.48 786.394 1211.01 788.365 1260.18C790.363 1310.03 800.376 1362.47 783.126 1406.13C765.346 1451.14 728.657 1470.54 696.028 1493.89C658.945 1520.42 622.549 1556.35 581.152 1550.64C536.224 1544.45 485.969 1518.27 465.062 1462.03C444.422 1406.5 470.985 1341.13 480.515 1279.91C487.395 1235.71 498.049 1195.72 512.775 1155.48C529.55 1109.64 541.956 1059.14 572.067 1029.72C607.547 995.046 652.074 960.867 693.271 979.099C734.364 997.285 753.072 1063.32 771.578 1118.01Z" stroke="white" stroke-width="4"/>
<path fill-rule="evenodd" clip-rule="evenodd" d="M742.753 1121.72C753.363 1153.09 753.204 1187.32 754.594 1222C756.003 1257.17 763.067 1294.16 750.899 1324.96C738.358 1356.7 712.478 1370.38 689.463 1386.85C663.306 1405.57 637.633 1430.91 608.433 1426.89C576.743 1422.51 541.295 1404.05 526.548 1364.38C511.989 1325.22 530.726 1279.11 537.447 1235.92C542.3 1204.74 549.816 1176.54 560.202 1148.15C572.035 1115.82 580.786 1080.2 602.025 1059.44C627.052 1034.99 658.459 1010.88 687.518 1023.74C716.504 1036.57 729.7 1083.14 742.753 1121.72Z" stroke="white" stroke-width="4"/>
<path fill-rule="evenodd" clip-rule="evenodd" d="M701.267 1168.28C707.678 1187.23 707.582 1207.92 708.422 1228.88C709.273 1250.13 713.541 1272.48 706.189 1291.09C698.611 1310.27 682.973 1318.54 669.065 1328.49C653.26 1339.8 637.747 1355.11 620.102 1352.68C600.953 1350.04 579.533 1338.88 570.622 1314.91C561.825 1291.24 573.146 1263.38 577.208 1237.29C580.141 1218.45 584.682 1201.4 590.958 1184.25C598.108 1164.71 603.396 1143.19 616.23 1130.65C631.353 1115.87 650.331 1101.3 667.89 1109.07C685.405 1116.82 693.379 1144.97 701.267 1168.28Z" stroke="white" stroke-width="4"/>
<path fill-rule="evenodd" clip-rule="evenodd" d="M259.703 147.457C329.303 149.48 359.651 275.784 416.392 332.501C469.428 385.516 541.284 396.645 581.241 468.865C625.983 549.734 666.68 654.572 649.712 754.216C632.776 853.673 546.416 889.492 496.868 964.352C449.692 1035.63 427.905 1140.33 365.75 1183.24C299.471 1229.01 220.002 1234.05 149.247 1204.37C78.6328 1174.74 27.4277 1095.38 -23.2021 1020.09C-75.9396 941.661 -137.631 864.703 -150.684 758.337C-163.851 651.041 -141.931 533.397 -93.3288 448.639C-48.0955 369.756 37.1862 375.827 98.7952 323.267C158.067 272.7 190.391 145.442 259.703 147.457Z" stroke="white" stroke-width="4"/>
<path fill-rule="evenodd" clip-rule="evenodd" d="M257.204 271.19C310.836 272.748 334.222 369.995 377.945 413.664C418.814 454.482 474.186 463.051 504.976 518.657C539.454 580.921 570.814 661.641 557.739 738.362C544.689 814.938 478.14 842.517 439.96 900.155C403.607 955.034 386.818 1035.65 338.922 1068.69C287.848 1103.93 226.611 1107.81 172.087 1084.95C117.673 1062.15 78.215 1001.04 39.2003 943.069C-1.43857 882.685 -48.9771 823.431 -59.0356 741.534C-69.1819 658.923 -52.2905 568.343 -14.8384 503.084C20.0178 442.348 85.7348 447.023 133.21 406.554C178.884 367.62 203.793 269.638 257.204 271.19Z" stroke="white" stroke-width="4"/>
<path fill-rule="evenodd" clip-rule="evenodd" d="M254.926 391.749C293.013 392.853 309.62 461.783 340.67 492.737C369.693 521.669 409.015 527.743 430.881 567.157C455.364 611.291 477.635 668.506 468.35 722.887C459.082 777.165 411.823 796.713 384.709 837.568C358.893 876.467 346.971 933.607 312.958 957.028C276.688 982.002 233.201 984.753 194.481 968.554C155.839 952.389 127.818 909.076 100.112 867.985C71.2526 825.184 37.4934 783.184 30.3504 725.135C23.1451 666.579 35.1404 602.375 61.7368 556.119C86.4897 513.069 133.158 516.382 166.872 487.697C199.308 460.1 216.996 390.649 254.926 391.749Z" stroke="white" stroke-width="4"/>
<path fill-rule="evenodd" clip-rule="evenodd" d="M252.648 512.309C274.995 512.959 284.74 553.572 302.958 571.809C319.986 588.856 343.058 592.435 355.887 615.657C370.253 641.66 383.32 675.371 377.872 707.411C372.434 739.391 344.705 750.909 328.797 774.98C313.65 797.899 306.654 831.566 286.698 845.365C265.417 860.079 239.901 861.7 217.183 852.156C194.511 842.632 178.07 817.112 161.814 792.902C144.881 767.684 125.073 742.938 120.882 708.736C116.655 674.236 123.693 636.407 139.298 609.153C153.821 583.789 181.203 585.741 200.984 568.84C220.015 552.58 230.394 511.661 252.648 512.309Z" stroke="white" stroke-width="4"/>
<path fill-rule="evenodd" clip-rule="evenodd" d="M1209.03 -311.143C1255.48 -340.841 1309.84 -357.919 1358.1 -334.513C1404.75 -311.887 1425.6 -239.065 1460.07 -189.38C1493.43 -141.297 1538.74 -108.967 1557.46 -47.155C1577.89 20.3107 1586.41 99.1175 1568.24 167.827C1550.15 236.261 1506.19 285.124 1460.48 319.679C1419 351.033 1371.07 355.961 1324.04 352.428C1281.75 349.252 1244.6 322.217 1205.16 300.5C1160.23 275.758 1104.42 271.678 1076.62 216.185C1048.51 160.07 1057.71 83.7558 1062.34 15.4307C1066.83 -50.7366 1077.7 -115.207 1102.93 -171.385C1129.35 -230.199 1164.01 -282.361 1209.03 -311.143Z" stroke="white" stroke-width="4"/>
<path fill-rule="evenodd" clip-rule="evenodd" d="M1228.71 -237.755C1265 -260.958 1307.47 -274.3 1345.18 -256.014C1381.62 -238.336 1397.91 -181.442 1424.84 -142.624C1450.91 -105.058 1486.31 -79.7994 1500.93 -31.5074C1516.89 21.202 1523.55 82.7718 1509.36 136.453C1495.22 189.919 1460.88 228.094 1425.16 255.091C1392.76 279.588 1355.31 283.437 1318.57 280.677C1285.53 278.196 1256.5 257.074 1225.69 240.107C1190.59 220.777 1146.98 217.589 1125.26 174.234C1103.3 130.393 1110.49 70.7701 1114.11 17.3893C1117.62 -34.3056 1126.1 -84.6744 1145.82 -128.565C1166.46 -174.515 1193.54 -215.269 1228.71 -237.755Z" stroke="white" stroke-width="4"/>
<path fill-rule="evenodd" clip-rule="evenodd" d="M1249.34 -160.831C1274.99 -177.225 1304.99 -186.652 1331.63 -173.732C1357.38 -161.242 1368.89 -121.043 1387.92 -93.616C1406.34 -67.0737 1431.35 -49.2271 1441.68 -15.1062C1452.96 22.1357 1457.66 65.6381 1447.63 103.567C1437.65 141.343 1413.38 168.316 1388.15 187.391C1365.25 204.699 1338.79 207.419 1312.83 205.469C1289.49 203.715 1268.98 188.792 1247.21 176.804C1222.41 163.146 1191.6 160.894 1176.25 130.261C1160.73 99.2848 1165.81 57.1582 1168.37 19.4419C1170.85 -17.0833 1176.85 -52.6716 1190.78 -83.6827C1205.36 -116.149 1224.49 -144.943 1249.34 -160.831Z" stroke="white" stroke-width="4"/>
<path fill-rule="evenodd" clip-rule="evenodd" d="M1267.72 -92.2689C1283.87 -102.594 1302.77 -108.532 1319.55 -100.394C1335.77 -92.5276 1343.02 -67.2092 1355 -49.9349C1366.6 -33.2178 1382.36 -21.9775 1388.86 -0.487232C1395.97 22.9688 1398.93 50.3678 1392.61 74.2564C1386.32 98.049 1371.04 115.037 1355.15 127.051C1340.73 137.952 1324.06 139.665 1307.71 138.437C1293.01 137.333 1280.09 127.933 1266.38 120.383C1250.76 111.781 1231.36 110.362 1221.69 91.0692C1211.92 71.5595 1215.11 45.027 1216.73 21.2722C1218.29 -1.73243 1222.06 -24.1469 1230.84 -43.6786C1240.02 -64.1268 1252.07 -82.2623 1267.72 -92.2689Z" stroke="white" stroke-width="4"/>
<path fill-rule="evenodd" clip-rule="evenodd" d="M1128.3 404.557C1186.94 403.008 1244.22 415.183 1297.79 448.753C1358.31 486.676 1417.76 532.901 1455.43 609.549C1497.04 694.219 1549.54 805.159 1518.86 898.605C1485.96 998.837 1365.11 962.145 1312.71 1044.34C1261.87 1124.08 1297.71 1275.8 1237.07 1340.59C1176.75 1405.05 1086.56 1397.26 1014.95 1362.49C944.532 1328.31 890.648 1245.26 853.555 1154.42C820.239 1072.82 831.12 974.697 818.848 882.204C805.892 784.562 749.001 685.228 779.406 595.574C809.873 505.738 896.891 493.711 962.846 457.601C1016.65 428.145 1070.57 406.082 1128.3 404.557Z" stroke="white" stroke-width="4"/>
<path fill-rule="evenodd" clip-rule="evenodd" d="M1132.49 509.23C1178.69 508.01 1223.82 517.603 1266.03 544.054C1313.71 573.936 1360.54 610.358 1390.22 670.753C1423 737.468 1464.36 824.883 1440.2 898.512C1414.27 977.49 1319.06 948.578 1277.78 1013.35C1237.73 1076.17 1265.96 1195.72 1218.19 1246.77C1170.67 1297.56 1099.61 1291.42 1043.2 1264.03C987.719 1237.1 945.267 1171.66 916.044 1100.08C889.797 1035.78 898.369 958.469 888.701 885.589C878.494 808.653 833.674 730.383 857.628 659.741C881.63 588.955 950.186 579.479 1002.15 551.026C1044.53 527.817 1087.02 510.432 1132.49 509.23Z" stroke="white" stroke-width="4"/>
<path fill-rule="evenodd" clip-rule="evenodd" d="M1137.64 629.764C1169.51 628.922 1200.65 635.534 1229.77 653.763C1262.67 674.356 1294.98 699.457 1315.46 741.079C1338.08 787.056 1366.62 847.299 1349.94 898.042C1332.06 952.47 1266.36 932.545 1237.88 977.18C1210.24 1020.48 1229.73 1102.87 1196.76 1138.05C1163.98 1173.05 1114.95 1168.82 1076.02 1149.94C1037.74 1131.38 1008.45 1086.28 988.289 1036.95C970.179 992.644 976.093 939.362 969.422 889.136C962.38 836.114 931.454 782.174 947.982 733.49C964.544 684.707 1011.85 678.176 1047.7 658.568C1076.94 642.572 1106.26 630.592 1137.64 629.764Z" stroke="white" stroke-width="4"/>
<path fill-rule="evenodd" clip-rule="evenodd" d="M1142.02 732.851C1161.67 732.335 1180.86 736.396 1198.81 747.593C1219.09 760.242 1239.01 775.66 1251.63 801.226C1265.58 829.467 1283.17 866.471 1272.89 897.639C1261.87 931.072 1221.37 918.833 1203.81 946.25C1186.78 972.845 1198.78 1023.45 1178.47 1045.06C1158.25 1066.56 1128.03 1063.96 1104.03 1052.37C1080.44 1040.97 1062.38 1013.27 1049.95 982.965C1038.79 955.748 1042.44 923.02 1038.32 892.169C1033.98 859.601 1014.92 826.468 1025.11 796.565C1035.32 766.6 1064.48 762.588 1086.58 750.544C1104.6 740.719 1122.67 733.36 1142.02 732.851Z" stroke="white" stroke-width="4"/>
<path fill-rule="evenodd" clip-rule="evenodd" d="M-149.078 -603.825C-91.0438 -598.047 -34.394 -610.435 21.5536 -587.993C94.7278 -558.642 183.695 -544.99 223.961 -454.194C264.197 -363.463 251.245 -237.589 220.246 -139.951C191.946 -50.8178 112.286 -25.232 65.0551 46.3018C20.2013 114.236 15.9994 247.914 -48.4978 267.078C-114.386 286.655 -158.234 164.505 -221.326 131.394C-277.703 101.807 -346.625 135.289 -395.112 85.1743C-447.044 31.4978 -498.936 -56.1331 -489.508 -145.793C-479.648 -239.569 -377.776 -257.284 -350.018 -343.67C-322.061 -430.673 -385.925 -558.927 -335.978 -623.593C-289.065 -684.33 -212.686 -610.159 -149.078 -603.825Z" stroke="white" stroke-width="4"/>
<path fill-rule="evenodd" clip-rule="evenodd" d="M-141.961 -501.87C-98.2451 -497.509 -55.5718 -506.858 -13.4275 -489.922C41.6932 -467.772 108.711 -457.47 139.042 -388.95C169.351 -320.48 159.595 -225.489 136.244 -151.807C114.926 -84.5425 54.9193 -65.2341 19.3414 -11.2512C-14.4462 40.0152 -17.6114 140.896 -66.1959 155.358C-115.829 170.132 -148.858 77.951 -196.385 52.9635C-238.852 30.6362 -290.77 55.9028 -327.294 18.084C-366.414 -22.423 -405.503 -88.5537 -398.401 -156.215C-390.973 -226.984 -314.235 -240.353 -293.326 -305.544C-272.266 -371.201 -320.373 -467.987 -282.749 -516.787C-247.411 -562.623 -189.876 -506.649 -141.961 -501.87Z" stroke="white" stroke-width="4"/>
<path fill-rule="evenodd" clip-rule="evenodd" d="M-133.743 -381.268C-106.841 -378.587 -80.5808 -384.334 -54.6459 -373.924C-20.7254 -360.309 20.5162 -353.976 39.1815 -311.858C57.8332 -269.771 51.8296 -211.382 37.4595 -166.091C24.341 -124.745 -12.5863 -112.877 -34.4804 -79.6947C-55.2728 -48.1823 -57.2206 13.8267 -87.1187 22.7162C-117.662 31.7975 -137.988 -24.864 -167.235 -40.2232C-193.368 -53.9474 -225.318 -38.4165 -247.794 -61.663C-271.868 -86.5617 -295.923 -127.211 -291.553 -168.801C-286.982 -212.301 -239.758 -220.518 -226.891 -260.59C-213.931 -300.948 -243.536 -360.441 -220.382 -390.437C-198.635 -418.611 -163.229 -384.205 -133.743 -381.268Z" stroke="white" stroke-width="4"/>
<path fill-rule="evenodd" clip-rule="evenodd" d="M680.999 -609.254C757.822 -607.257 781.328 -453.443 824.694 -364.246C852.298 -307.468 860.815 -239.85 888.269 -182.928C923.731 -109.404 1010.45 -72.4357 1008.26 16.3521C1006.15 102.168 919.696 127.435 879.056 191.52C839.236 254.312 830.077 365.553 772.456 388.193C714.726 410.874 663.674 330.479 608.404 297.858C560.287 269.459 508.272 256.7 468.677 208.901C424.868 156.014 395.153 87.0945 372.134 12.632C342.534 -83.1206 278.493 -194.171 316.294 -284.035C355.498 -377.235 468.817 -313.817 533.848 -371.807C598.201 -429.193 604.81 -611.235 680.999 -609.254Z" stroke="white" stroke-width="4"/>
<path fill-rule="evenodd" clip-rule="evenodd" d="M673.391 -450.622C725.861 -449.258 741.915 -344.242 771.534 -283.342C790.387 -244.577 796.204 -198.411 814.955 -159.548C839.175 -109.349 898.401 -84.109 896.909 -23.4892C895.467 35.1015 836.419 52.3525 808.662 96.1068C781.465 138.978 775.21 214.928 735.855 230.385C696.426 245.871 661.559 190.981 623.81 168.709C590.946 149.32 555.421 140.608 528.378 107.974C498.456 71.865 478.161 24.8102 462.44 -26.0291C442.223 -91.4041 398.484 -167.224 424.302 -228.578C451.078 -292.211 528.474 -248.912 572.889 -288.505C616.841 -327.685 621.355 -451.974 673.391 -450.622Z" stroke="white" stroke-width="4"/>
<path fill-rule="evenodd" clip-rule="evenodd" d="M665.135 -282.471C691.74 -281.778 699.88 -228.417 714.898 -197.473C724.457 -177.775 727.407 -154.318 736.914 -134.57C749.195 -109.063 779.225 -96.2381 778.468 -65.436C777.737 -35.6648 747.798 -26.8992 733.724 -4.66676C719.934 17.1169 716.762 55.7087 696.807 63.5627C676.815 71.4314 659.136 43.5406 639.996 32.2239C623.332 22.3717 605.319 17.9454 591.608 1.36304C576.436 -16.9845 566.146 -40.8941 558.174 -66.7265C547.923 -99.9449 525.746 -138.47 538.837 -169.646C552.413 -201.979 591.656 -179.978 614.176 -200.096C636.462 -220.004 638.751 -283.158 665.135 -282.471Z" stroke="white" stroke-width="4"/>
</g>
</g>
<path fill-rule="evenodd" clip-rule="evenodd" d="M1259.54 1128.52C1173.5 1103.65 1115.97 993.926 1044.16 917.947C970.492 840 830.453 814.332 834.069 678.336C838.236 521.593 1039.06 524.147 1058.73 370.131C1083.74 174.277 857.361 -38.1066 944.633 -187.514C1022.77 -321.283 1324.57 -276.696 1427.54 -189.664C1478.88 -146.275 1535.05 -96.2923 1584.77 -48.7673C1640.2 4.22152 1684.7 35.7632 1733.21 102.534C1820.35 222.481 1785.96 547.361 1780.94 725.542C1776.22 893.494 1643.14 986.112 1544.28 1062.52C1456.61 1130.28 1356.22 1156.47 1259.54 1128.52Z" fill="#FBFBFB"/>
<g clip-path="url(#clip2_408_210)">
<g opacity="0.1">
<path fill-rule="evenodd" clip-rule="evenodd" d="M771.578 1117.08C786.62 1161.51 786.394 1210 788.365 1259.13C790.363 1308.94 800.376 1361.34 783.126 1404.96C765.346 1449.93 728.657 1469.32 696.028 1492.64C658.945 1519.15 622.549 1555.06 581.152 1549.35C536.224 1543.16 485.97 1517.01 465.062 1460.81C444.422 1405.33 470.985 1340.02 480.515 1278.84C487.395 1234.68 498.049 1194.73 512.775 1154.52C529.55 1108.71 541.956 1058.26 572.067 1028.86C607.547 994.217 652.074 960.066 693.271 978.283C734.364 996.454 753.072 1062.43 771.578 1117.08Z" stroke="#00ADB5" stroke-width="4"/>
<path fill-rule="evenodd" clip-rule="evenodd" d="M742.753 1120.79C753.363 1152.13 753.204 1186.33 754.594 1220.99C756.003 1256.12 763.067 1293.08 750.899 1323.85C738.358 1355.57 712.478 1369.24 689.463 1385.7C663.306 1404.4 637.633 1429.72 608.433 1425.7C576.743 1421.33 541.295 1402.88 526.548 1363.24C511.989 1324.11 530.726 1278.04 537.447 1234.89C542.3 1203.74 549.816 1175.56 560.202 1147.2C572.035 1114.89 580.786 1079.3 602.025 1058.56C627.052 1034.13 658.459 1010.04 687.518 1022.89C716.504 1035.7 729.7 1082.24 742.753 1120.79Z" stroke="#00ADB5" stroke-width="4"/>
<path fill-rule="evenodd" clip-rule="evenodd" d="M701.267 1167.31C707.678 1186.24 707.582 1206.91 708.422 1227.85C709.273 1249.08 713.541 1271.42 706.189 1290.01C698.611 1309.18 682.973 1317.44 669.065 1327.38C653.26 1338.68 637.747 1353.98 620.102 1351.55C600.953 1348.91 579.533 1337.77 570.622 1313.81C561.825 1290.17 573.147 1262.33 577.208 1236.26C580.141 1217.43 584.682 1200.4 590.958 1183.27C598.108 1163.74 603.396 1142.24 616.23 1129.71C631.353 1114.94 650.331 1100.38 667.89 1108.15C685.405 1115.89 693.379 1144.01 701.267 1167.31Z" stroke="#00ADB5" stroke-width="4"/>
<path fill-rule="evenodd" clip-rule="evenodd" d="M259.703 147.334C329.303 149.356 359.651 275.554 416.392 332.224C469.428 385.195 541.284 396.315 581.241 468.475C625.983 549.276 666.68 654.027 649.712 753.588C632.776 852.962 546.416 888.751 496.868 963.549C449.692 1034.77 427.905 1139.38 365.75 1182.26C299.471 1227.98 220.002 1233.02 149.247 1203.36C78.6328 1173.77 27.4277 1094.47 -23.2021 1019.24C-75.9396 940.877 -137.631 863.983 -150.684 757.705C-163.851 650.499 -141.931 532.953 -93.3288 448.266C-48.0955 369.449 37.1862 375.515 98.7952 322.998C158.067 272.473 190.391 145.321 259.703 147.334Z" stroke="#00ADB5" stroke-width="4"/>
<path fill-rule="evenodd" clip-rule="evenodd" d="M257.204 270.964C310.836 272.52 334.222 369.686 377.945 413.319C418.814 454.103 474.186 462.665 504.976 518.225C539.454 580.437 570.814 661.09 557.739 737.747C544.689 814.259 478.14 841.815 439.96 899.405C403.607 954.238 386.818 1034.79 338.922 1067.8C287.848 1103.01 226.611 1106.88 172.087 1084.05C117.673 1061.26 78.215 1000.21 39.2003 942.283C-1.43857 881.949 -48.9771 822.744 -59.0356 740.916C-69.1819 658.374 -52.2905 567.869 -14.8384 502.665C20.0178 441.98 85.7348 446.65 133.21 406.215C178.884 367.314 203.793 269.413 257.204 270.964Z" stroke="#00ADB5" stroke-width="4"/>
<path fill-rule="evenodd" clip-rule="evenodd" d="M254.926 391.423C293.013 392.526 309.62 461.398 340.67 492.326C369.693 521.234 409.015 527.303 430.881 566.684C455.364 610.781 477.635 667.949 468.35 722.284C459.082 776.517 411.823 796.049 384.709 836.87C358.893 875.736 346.971 932.829 312.958 956.23C276.688 981.184 233.201 983.932 194.481 967.747C155.839 951.595 127.818 908.318 100.112 867.262C71.2526 824.497 37.4934 782.532 30.3504 724.531C23.1451 666.024 35.1404 601.873 61.7368 555.655C86.4897 512.641 133.158 515.952 166.872 487.291C199.308 459.717 216.996 390.324 254.926 391.423Z" stroke="#00ADB5" stroke-width="4"/>
<path fill-rule="evenodd" clip-rule="evenodd" d="M252.648 511.882C274.995 512.532 284.74 553.111 302.958 571.333C319.986 588.365 343.058 591.941 355.887 615.144C370.253 641.125 383.32 674.808 377.872 706.822C372.434 738.775 344.705 750.283 328.797 774.334C313.65 797.234 306.654 830.872 286.698 844.66C265.417 859.363 239.901 860.982 217.183 851.446C194.511 841.929 178.07 816.431 161.814 792.241C144.881 767.044 125.073 742.319 120.882 708.145C116.655 673.674 123.693 635.877 139.298 608.646C153.821 583.302 181.203 585.253 200.984 568.366C220.015 552.12 230.394 511.234 252.648 511.882Z" stroke="#00ADB5" stroke-width="4"/>
<path fill-rule="evenodd" clip-rule="evenodd" d="M1209.03 -310.884C1255.48 -340.557 1309.84 -357.621 1358.1 -334.235C1404.75 -311.627 1425.6 -238.866 1460.07 -189.222C1493.43 -141.179 1538.74 -108.876 1557.46 -47.1157C1577.89 20.2938 1586.41 99.0348 1568.24 167.687C1550.15 236.064 1506.19 284.886 1460.48 319.412C1419 350.741 1371.07 355.664 1324.04 352.134C1281.75 348.961 1244.6 321.948 1205.16 300.25C1160.23 275.528 1104.42 271.451 1076.62 216.005C1048.51 159.937 1057.71 83.686 1062.34 15.4179C1066.83 -50.6942 1077.7 -115.111 1102.93 -171.242C1129.35 -230.007 1164.01 -282.126 1209.03 -310.884Z" stroke="#00ADB5" stroke-width="4"/>
<path fill-rule="evenodd" clip-rule="evenodd" d="M1228.71 -237.557C1265 -260.74 1307.47 -274.071 1345.18 -255.8C1381.62 -238.138 1397.91 -181.291 1424.84 -142.505C1450.91 -104.97 1486.31 -79.7328 1500.93 -31.481C1516.89 21.1844 1523.55 82.7029 1509.36 136.34C1495.22 189.76 1460.88 227.904 1425.16 254.879C1392.76 279.355 1355.31 283.201 1318.57 280.444C1285.53 277.964 1256.5 256.86 1225.69 239.907C1190.59 220.593 1146.98 217.408 1125.26 174.089C1103.3 130.284 1110.49 70.7112 1114.11 17.375C1117.62 -34.2768 1126.1 -84.6037 1145.82 -128.458C1166.46 -174.37 1193.54 -215.089 1228.71 -237.557Z" stroke="#00ADB5" stroke-width="4"/>
<path fill-rule="evenodd" clip-rule="evenodd" d="M1249.34 -160.697C1274.99 -177.077 1304.99 -186.496 1331.63 -173.587C1357.38 -161.107 1368.89 -120.942 1387.92 -93.538C1406.34 -67.0178 1431.35 -49.1861 1441.68 -15.0936C1452.96 22.1173 1457.66 65.5834 1447.63 103.48C1437.65 141.225 1413.38 168.176 1388.15 187.235C1365.25 204.528 1338.79 207.246 1312.83 205.298C1289.49 203.546 1268.98 188.634 1247.21 176.657C1222.41 163.01 1191.6 160.759 1176.25 130.152C1160.73 99.2021 1165.81 57.1106 1168.37 19.4257C1170.85 -17.069 1176.85 -52.6276 1190.78 -83.6129C1205.36 -116.052 1224.49 -144.822 1249.34 -160.697Z" stroke="#00ADB5" stroke-width="4"/>
<path fill-rule="evenodd" clip-rule="evenodd" d="M1267.72 -92.1921C1283.87 -102.509 1302.77 -108.441 1319.55 -100.311C1335.77 -92.4505 1343.02 -67.1533 1355 -49.8934C1366.6 -33.1902 1382.36 -21.9593 1388.86 -0.486911C1395.97 22.9496 1398.93 50.3258 1392.61 74.1944C1386.32 97.9672 1371.04 114.941 1355.15 126.945C1340.73 137.837 1324.06 139.549 1307.71 138.322C1293.01 137.218 1280.09 127.827 1266.38 120.283C1250.76 111.688 1231.36 110.27 1221.69 90.9932C1211.92 71.4998 1215.11 44.9894 1216.73 21.2544C1218.29 -1.73107 1222.06 -24.1269 1230.84 -43.6423C1240.02 -64.0735 1252.07 -82.1938 1267.72 -92.1921Z" stroke="#00ADB5" stroke-width="4"/>
<path fill-rule="evenodd" clip-rule="evenodd" d="M1128.3 404.22C1186.94 402.672 1244.22 414.837 1297.79 448.379C1358.31 486.27 1417.76 532.457 1455.43 609.042C1497.04 693.64 1549.54 804.489 1518.86 897.856C1485.96 998.005 1365.11 961.343 1312.71 1043.47C1261.87 1123.14 1297.71 1274.74 1237.07 1339.48C1176.75 1403.87 1086.56 1396.09 1014.95 1361.36C944.532 1327.2 890.648 1244.23 853.555 1153.45C820.239 1071.93 831.12 973.885 818.848 881.469C805.892 783.908 749.001 684.657 779.406 595.078C809.873 505.316 896.891 493.3 962.846 457.22C1016.65 427.788 1070.57 405.744 1128.3 404.22Z" stroke="#00ADB5" stroke-width="4"/>
<path fill-rule="evenodd" clip-rule="evenodd" d="M1132.49 508.806C1178.69 507.587 1223.82 517.172 1266.03 543.601C1313.71 573.457 1360.54 609.85 1390.22 670.194C1423 736.853 1464.36 824.196 1440.2 897.764C1414.27 976.676 1319.06 947.788 1277.78 1012.5C1237.73 1075.28 1265.96 1194.73 1218.19 1245.74C1170.67 1296.48 1099.61 1290.35 1043.2 1262.98C987.719 1236.07 945.267 1170.68 916.044 1099.16C889.797 1034.92 898.369 957.671 888.701 884.852C878.494 807.979 833.674 729.775 857.628 659.192C881.63 588.465 950.186 578.996 1002.15 550.567C1044.53 527.377 1087.02 510.007 1132.49 508.806Z" stroke="#00ADB5" stroke-width="4"/>
<path fill-rule="evenodd" clip-rule="evenodd" d="M1137.64 629.239C1169.51 628.398 1200.65 635.004 1229.77 653.218C1262.67 673.794 1294.98 698.874 1315.46 740.461C1338.08 786.4 1366.62 846.593 1349.94 897.293C1332.06 951.676 1266.36 931.768 1237.88 976.366C1210.24 1019.63 1229.73 1101.95 1196.76 1137.1C1163.98 1172.07 1114.95 1167.85 1076.02 1148.98C1037.74 1130.44 1008.45 1085.38 988.289 1036.09C970.179 991.817 976.093 938.579 969.422 888.395C962.38 835.417 931.454 781.522 947.982 732.879C964.544 684.136 1011.85 677.611 1047.7 658.019C1076.94 642.037 1106.26 630.066 1137.64 629.239Z" stroke="#00ADB5" stroke-width="4"/>
<path fill-rule="evenodd" clip-rule="evenodd" d="M1142.02 732.241C1161.67 731.725 1180.86 735.782 1198.81 746.97C1219.09 759.608 1239.01 775.014 1251.63 800.558C1265.58 828.776 1283.17 865.749 1272.89 896.891C1261.87 930.296 1221.37 918.067 1203.81 945.461C1186.78 972.035 1198.78 1022.6 1178.47 1044.19C1158.25 1065.67 1128.03 1063.08 1104.03 1051.49C1080.44 1040.1 1062.38 1012.42 1049.95 982.145C1038.79 954.952 1042.44 922.251 1038.32 891.426C1033.98 858.884 1014.92 825.78 1025.11 795.901C1035.32 765.961 1064.48 761.953 1086.58 749.919C1104.6 740.102 1122.67 732.749 1142.02 732.241Z" stroke="#00ADB5" stroke-width="4"/>
<path fill-rule="evenodd" clip-rule="evenodd" d="M-149.078 -603.322C-91.0438 -597.548 -34.394 -609.926 21.5536 -587.503C94.7278 -558.176 183.695 -544.536 223.961 -453.815C264.197 -363.16 251.245 -237.391 220.246 -139.834C191.946 -50.7754 112.286 -25.2109 65.0551 46.2633C20.2013 114.141 15.9994 247.707 -48.4978 266.855C-114.386 286.416 -158.234 164.368 -221.326 131.284C-277.703 101.723 -346.625 135.176 -395.112 85.1034C-447.044 31.4717 -498.936 -56.0863 -489.508 -145.671C-479.648 -239.369 -377.776 -257.07 -350.018 -343.384C-322.061 -430.314 -385.925 -558.461 -335.978 -623.073C-289.065 -683.76 -212.686 -609.65 -149.078 -603.322Z" stroke="#00ADB5" stroke-width="4"/>
<path fill-rule="evenodd" clip-rule="evenodd" d="M-141.961 -501.452C-98.2451 -497.095 -55.5718 -506.435 -13.4275 -489.514C41.6932 -467.383 108.711 -457.089 139.042 -388.626C169.351 -320.213 159.595 -225.301 136.244 -151.68C114.926 -84.4721 54.9193 -65.1798 19.3414 -11.2418C-14.4462 39.9818 -17.6114 140.778 -66.1959 155.228C-115.829 169.99 -148.858 77.886 -196.385 52.9194C-238.852 30.6106 -290.77 55.8562 -327.294 18.0689C-366.414 -22.4043 -405.503 -88.48 -398.401 -156.085C-390.973 -226.795 -314.235 -240.152 -293.326 -305.289C-272.266 -370.891 -320.373 -467.597 -282.749 -516.357C-247.411 -562.154 -189.876 -506.227 -141.961 -501.452Z" stroke="#00ADB5" stroke-width="4"/>
<path fill-rule="evenodd" clip-rule="evenodd" d="M-133.743 -380.95C-106.841 -378.272 -80.5808 -384.013 -54.6459 -373.612C-20.7254 -360.008 20.5162 -353.681 39.1815 -311.598C57.8332 -269.546 51.8296 -211.206 37.4595 -165.953C24.341 -124.641 -12.5863 -112.783 -34.4804 -79.6281C-55.2728 -48.142 -57.2206 13.8154 -87.1187 22.6975C-117.662 31.7712 -137.988 -24.8431 -167.235 -40.1895C-193.368 -53.9022 -225.318 -38.3843 -247.794 -61.6114C-271.868 -86.4894 -295.923 -127.105 -291.553 -168.66C-286.982 -212.124 -239.758 -220.334 -226.891 -260.373C-213.931 -300.697 -243.536 -360.14 -220.382 -390.111C-198.635 -418.262 -163.229 -383.885 -133.743 -380.95Z" stroke="#00ADB5" stroke-width="4"/>
<path fill-rule="evenodd" clip-rule="evenodd" d="M680.999 -608.746C757.822 -606.751 781.328 -453.065 824.694 -363.942C852.298 -307.211 860.815 -239.65 888.269 -182.776C923.731 -109.313 1010.45 -72.3752 1008.26 16.3386C1006.15 102.083 919.696 127.329 879.056 191.361C839.236 254.1 830.077 365.249 772.456 387.869C714.726 410.532 663.674 330.204 608.404 297.61C560.287 269.235 508.272 256.486 468.677 208.727C424.868 155.884 395.153 87.0221 372.134 12.6216C342.534 -83.0512 278.493 -194.009 316.294 -283.798C355.498 -376.92 468.817 -313.556 533.848 -371.497C598.201 -428.835 604.81 -610.725 680.999 -608.746Z" stroke="#00ADB5" stroke-width="4"/>
<path fill-rule="evenodd" clip-rule="evenodd" d="M673.391 -450.246C725.861 -448.883 741.915 -343.955 771.534 -283.106C790.387 -244.373 796.204 -198.246 814.955 -159.415C839.175 -109.258 898.401 -84.0387 896.909 -23.4694C895.467 35.0725 836.419 52.3091 808.662 96.027C781.465 138.862 775.21 214.749 735.855 230.193C696.426 245.666 661.559 190.822 623.81 168.569C590.946 149.195 555.421 140.491 528.378 107.884C498.456 71.8053 478.161 24.7897 462.44 -26.0072C442.223 -91.3277 398.484 -167.084 424.302 -228.387C451.078 -291.967 528.474 -248.704 572.889 -288.264C616.841 -327.412 621.355 -451.597 673.391 -450.246Z" stroke="#00ADB5" stroke-width="4"/>
<path fill-rule="evenodd" clip-rule="evenodd" d="M665.135 -282.235C691.74 -281.543 699.88 -228.227 714.898 -197.308C724.457 -177.627 727.407 -154.189 736.914 -134.458C749.195 -108.972 779.225 -96.158 778.468 -65.3815C777.737 -35.6352 747.798 -26.8769 733.724 -4.66291C719.934 17.1026 716.762 55.6622 696.807 63.5097C676.815 71.3719 659.136 43.5043 639.996 32.197C623.332 22.353 605.319 17.9304 591.608 1.36187C576.436 -16.9704 566.146 -40.86 558.174 -66.671C547.923 -99.8617 525.746 -138.355 538.837 -169.505C552.413 -201.811 591.656 -179.828 614.176 -199.929C636.462 -219.821 638.751 -282.922 665.135 -282.235Z" stroke="#00ADB5" stroke-width="4"/>
</g>
</g>
<path fill-rule="evenodd" clip-rule="evenodd" d="M18.9132 933.413C63.3584 967.561 54.8624 1037.46 84.6265 1085.36C112.296 1129.88 180.057 1148.07 185.03 1200.74C190.01 1253.48 144.656 1297.45 108.293 1335.99C75.4341 1370.81 32.9017 1389.93 -10.8761 1408.34C-59.6266 1428.84 -108.211 1457.78 -159.853 1448.74C-215.59 1438.99 -272.503 1408.85 -298.512 1358C-323.781 1308.59 -294.654 1250.13 -289.997 1194.3C-285.704 1142.81 -293.014 1091.49 -272.334 1044.07C-247.049 986.096 -218.786 919.305 -160.382 897.115C-101.473 874.733 -30.7368 895.267 18.9132 933.413Z" fill="#00FFF5"/>
<g clip-path="url(#clip3_408_210)">
<g opacity="0.1">
<path fill-rule="evenodd" clip-rule="evenodd" d="M771.578 1117.08C786.62 1161.51 786.394 1210 788.365 1259.13C790.363 1308.94 800.376 1361.34 783.126 1404.96C765.346 1449.93 728.657 1469.32 696.028 1492.64C658.945 1519.15 622.549 1555.06 581.152 1549.35C536.224 1543.16 485.97 1517.01 465.062 1460.81C444.422 1405.33 470.985 1340.02 480.515 1278.84C487.395 1234.68 498.049 1194.73 512.775 1154.52C529.55 1108.71 541.956 1058.26 572.067 1028.86C607.547 994.217 652.074 960.066 693.271 978.283C734.364 996.454 753.072 1062.43 771.578 1117.08Z" stroke="#00ADB5" stroke-width="4"/>
<path fill-rule="evenodd" clip-rule="evenodd" d="M742.753 1120.79C753.363 1152.13 753.204 1186.33 754.594 1220.99C756.003 1256.12 763.067 1293.08 750.899 1323.85C738.358 1355.57 712.478 1369.24 689.463 1385.7C663.306 1404.4 637.633 1429.72 608.433 1425.7C576.743 1421.33 541.295 1402.88 526.548 1363.24C511.989 1324.11 530.726 1278.04 537.447 1234.89C542.3 1203.74 549.816 1175.56 560.202 1147.2C572.035 1114.89 580.786 1079.3 602.025 1058.56C627.052 1034.13 658.459 1010.04 687.518 1022.89C716.504 1035.7 729.7 1082.24 742.753 1120.79Z" stroke="#00ADB5" stroke-width="4"/>
<path fill-rule="evenodd" clip-rule="evenodd" d="M701.267 1167.31C707.678 1186.24 707.582 1206.91 708.422 1227.85C709.273 1249.08 713.541 1271.42 706.189 1290.01C698.611 1309.18 682.973 1317.44 669.065 1327.38C653.26 1338.68 637.747 1353.98 620.102 1351.55C600.953 1348.91 579.533 1337.77 570.622 1313.81C561.825 1290.17 573.147 1262.33 577.208 1236.26C580.141 1217.43 584.682 1200.4 590.958 1183.27C598.108 1163.74 603.396 1142.24 616.23 1129.71C631.353 1114.94 650.331 1100.38 667.89 1108.15C685.405 1115.89 693.379 1144.01 701.267 1167.31Z" stroke="#00ADB5" stroke-width="4"/>
<path fill-rule="evenodd" clip-rule="evenodd" d="M259.703 147.334C329.303 149.356 359.651 275.554 416.392 332.224C469.428 385.195 541.284 396.315 581.241 468.475C625.983 549.276 666.68 654.027 649.712 753.588C632.776 852.962 546.416 888.751 496.868 963.549C449.692 1034.77 427.905 1139.38 365.75 1182.26C299.471 1227.98 220.002 1233.02 149.247 1203.36C78.6328 1173.77 27.4277 1094.47 -23.2021 1019.24C-75.9396 940.877 -137.631 863.983 -150.684 757.705C-163.851 650.499 -141.931 532.953 -93.3288 448.266C-48.0955 369.449 37.1862 375.515 98.7952 322.998C158.067 272.473 190.391 145.321 259.703 147.334Z" stroke="#00ADB5" stroke-width="4"/>
<path fill-rule="evenodd" clip-rule="evenodd" d="M257.204 270.964C310.836 272.52 334.222 369.686 377.945 413.319C418.814 454.103 474.186 462.665 504.976 518.225C539.454 580.437 570.814 661.09 557.739 737.747C544.689 814.259 478.14 841.815 439.96 899.405C403.607 954.238 386.818 1034.79 338.922 1067.8C287.848 1103.01 226.611 1106.88 172.087 1084.05C117.673 1061.26 78.215 1000.21 39.2003 942.283C-1.43857 881.949 -48.9771 822.744 -59.0356 740.916C-69.1819 658.374 -52.2905 567.869 -14.8384 502.665C20.0178 441.98 85.7348 446.65 133.21 406.215C178.884 367.314 203.793 269.413 257.204 270.964Z" stroke="#00ADB5" stroke-width="4"/>
<path fill-rule="evenodd" clip-rule="evenodd" d="M254.926 391.423C293.013 392.526 309.62 461.398 340.67 492.326C369.693 521.234 409.015 527.303 430.881 566.684C455.364 610.781 477.635 667.949 468.35 722.284C459.082 776.517 411.823 796.049 384.709 836.87C358.893 875.736 346.971 932.829 312.958 956.23C276.688 981.184 233.201 983.932 194.481 967.747C155.839 951.595 127.818 908.318 100.112 867.262C71.2526 824.497 37.4934 782.532 30.3504 724.531C23.1451 666.024 35.1404 601.873 61.7368 555.655C86.4897 512.641 133.158 515.952 166.872 487.291C199.308 459.717 216.996 390.324 254.926 391.423Z" stroke="#00ADB5" stroke-width="4"/>
<path fill-rule="evenodd" clip-rule="evenodd" d="M252.648 511.882C274.995 512.532 284.74 553.111 302.958 571.333C319.986 588.365 343.058 591.941 355.887 615.144C370.253 641.125 383.32 674.808 377.872 706.822C372.434 738.775 344.705 750.283 328.797 774.334C313.65 797.234 306.654 830.872 286.698 844.66C265.417 859.363 239.901 860.982 217.183 851.446C194.511 841.929 178.07 816.431 161.814 792.241C144.881 767.044 125.073 742.319 120.882 708.145C116.655 673.674 123.693 635.877 139.298 608.646C153.821 583.302 181.203 585.253 200.984 568.366C220.015 552.12 230.394 511.234 252.648 511.882Z" stroke="#00ADB5" stroke-width="4"/>
<path fill-rule="evenodd" clip-rule="evenodd" d="M-149.078 -603.322C-91.0438 -597.548 -34.394 -609.926 21.5536 -587.503C94.7278 -558.176 183.695 -544.536 223.961 -453.815C264.197 -363.16 251.245 -237.391 220.246 -139.834C191.946 -50.7754 112.286 -25.2109 65.0551 46.2633C20.2013 114.141 15.9994 247.707 -48.4978 266.855C-114.386 286.416 -158.234 164.368 -221.326 131.284C-277.703 101.723 -346.625 135.176 -395.112 85.1034C-447.044 31.4717 -498.936 -56.0863 -489.508 -145.671C-479.648 -239.369 -377.776 -257.07 -350.018 -343.384C-322.061 -430.314 -385.925 -558.461 -335.978 -623.073C-289.065 -683.76 -212.686 -609.65 -149.078 -603.322Z" stroke="#00ADB5" stroke-width="4"/>
<path fill-rule="evenodd" clip-rule="evenodd" d="M-141.961 -501.452C-98.2451 -497.095 -55.5718 -506.435 -13.4275 -489.514C41.6932 -467.383 108.711 -457.089 139.042 -388.626C169.351 -320.213 159.595 -225.301 136.244 -151.68C114.926 -84.4721 54.9193 -65.1798 19.3414 -11.2418C-14.4462 39.9818 -17.6114 140.778 -66.1959 155.228C-115.829 169.99 -148.858 77.886 -196.385 52.9194C-238.852 30.6106 -290.77 55.8562 -327.294 18.0689C-366.414 -22.4043 -405.503 -88.48 -398.401 -156.085C-390.973 -226.795 -314.235 -240.152 -293.326 -305.289C-272.266 -370.891 -320.373 -467.597 -282.749 -516.357C-247.411 -562.154 -189.876 -506.227 -141.961 -501.452Z" stroke="#00ADB5" stroke-width="4"/>
<path fill-rule="evenodd" clip-rule="evenodd" d="M-133.743 -380.95C-106.841 -378.272 -80.5808 -384.013 -54.6459 -373.612C-20.7254 -360.008 20.5162 -353.681 39.1815 -311.598C57.8332 -269.546 51.8296 -211.206 37.4595 -165.953C24.341 -124.641 -12.5863 -112.783 -34.4804 -79.6281C-55.2728 -48.142 -57.2206 13.8154 -87.1187 22.6975C-117.662 31.7712 -137.988 -24.8431 -167.235 -40.1895C-193.368 -53.9022 -225.318 -38.3843 -247.794 -61.6114C-271.868 -86.4894 -295.923 -127.105 -291.553 -168.66C-286.982 -212.124 -239.758 -220.334 -226.891 -260.373C-213.931 -300.697 -243.536 -360.14 -220.382 -390.111C-198.635 -418.262 -163.229 -383.885 -133.743 -380.95Z" stroke="#00ADB5" stroke-width="4"/>
<path fill-rule="evenodd" clip-rule="evenodd" d="M680.999 -608.746C757.822 -606.751 781.328 -453.065 824.694 -363.942C852.298 -307.211 860.815 -239.65 888.269 -182.776C923.731 -109.313 1010.45 -72.3752 1008.26 16.3386C1006.15 102.083 919.696 127.329 879.056 191.361C839.236 254.1 830.077 365.249 772.456 387.869C714.726 410.532 663.674 330.204 608.404 297.61C560.287 269.235 508.272 256.486 468.677 208.727C424.868 155.884 395.153 87.0221 372.134 12.6216C342.534 -83.0512 278.493 -194.009 316.294 -283.798C355.498 -376.92 468.817 -313.556 533.848 -371.497C598.201 -428.835 604.81 -610.725 680.999 -608.746Z" stroke="#00ADB5" stroke-width="4"/>
<path fill-rule="evenodd" clip-rule="evenodd" d="M673.391 -450.246C725.861 -448.883 741.915 -343.955 771.534 -283.106C790.387 -244.373 796.204 -198.246 814.955 -159.415C839.175 -109.258 898.401 -84.0387 896.909 -23.4694C895.467 35.0725 836.419 52.3091 808.662 96.027C781.465 138.862 775.21 214.749 735.855 230.193C696.426 245.666 661.559 190.822 623.81 168.569C590.946 149.195 555.421 140.491 528.378 107.884C498.456 71.8053 478.161 24.7897 462.44 -26.0072C442.223 -91.3277 398.484 -167.084 424.302 -228.387C451.078 -291.967 528.474 -248.704 572.889 -288.264C616.841 -327.412 621.355 -451.597 673.391 -450.246Z" stroke="#00ADB5" stroke-width="4"/>
<path fill-rule="evenodd" clip-rule="evenodd" d="M665.135 -282.235C691.74 -281.543 699.88 -228.227 714.898 -197.308C724.457 -177.627 727.407 -154.189 736.914 -134.458C749.195 -108.972 779.225 -96.158 778.468 -65.3815C777.737 -35.6352 747.798 -26.8769 733.724 -4.66291C719.934 17.1026 716.762 55.6622 696.807 63.5097C676.815 71.3719 659.136 43.5043 639.996 32.197C623.332 22.353 605.319 17.9304 591.608 1.36187C576.436 -16.9704 566.146 -40.86 558.174 -66.671C547.923 -99.8617 525.746 -138.355 538.837 -169.505C552.413 -201.811 591.656 -179.828 614.176 -199.929C636.462 -219.821 638.751 -282.922 665.135 -282.235Z" stroke="#00ADB5" stroke-width="4"/>
</g>
</g>
</g>
<defs>
<clipPath id="clip0_408_210">
<rect width="1600" height="1200" fill="white"/>
</clipPath>
<clipPath id="clip1_408_210">
<rect width="1600" height="1200" fill="white"/>
</clipPath>
<clipPath id="clip2_408_210">
<rect width="1600" height="1199" fill="white"/>
</clipPath>
<clipPath id="clip3_408_210">
<rect width="1600" height="1199" fill="white"/>
</clipPath>
</defs>
</svg>
